<svg width="904" height="740" viewBox="0 0 904 740" fill="none" xmlns="http://www.w3.org/2000/svg">
<path d="M483.626 443.308C500.962 443.308 432 408 464 344C428.162 396 385.049 430.241 334.464 443.308L483.626 443.308Z" fill="#273131"/>
<path d="M566.26 183C312.26 234 516.901 376.852 188.76 445C176 414 130 260 154 206C154 206 224 172 224 196C224 220 171.02 294 224 400C402.785 341.393 310.26 183 566.26 183Z" fill="#273131"/>
<ellipse cx="486" cy="307.5" rx="25" ry="18.5" fill="#273131"/>
<path fill-rule="evenodd" clip-rule="evenodd" d="M821.994 395.748C821.994 362.611 781.701 335.415 731.997 335.005C682.293 334.594 642 361.124 642 394.261C642 427.398 682.293 454.594 731.997 455.005C781.701 455.415 821.994 428.885 821.994 395.748ZM777.024 412.563C790.832 412.563 802.024 404.28 802.024 394.063C802.024 383.845 790.832 375.563 777.024 375.563C763.217 375.563 752.024 383.845 752.024 394.063C752.024 404.28 763.217 412.563 777.024 412.563Z" fill="#273131"/>
<path fill-rule="evenodd" clip-rule="evenodd" d="M678 292C550 292 476.483 365.154 550 444C634.695 534.835 359.756 575.357 185 589.614V592.291C372.891 583.533 688.907 552.9 604 444C549.792 374.474 520 328 678 292ZM55 595.92V595.902C54.8511 595.908 54.8495 595.914 55 595.92Z" fill="#273131"/>
</svg>
